# xmcd CD database file
#
# Track frame offsets:
#	150
#	13800
#	31102
#	48535
#	61630
#	79922
#	93910
#	108670
#	123850
#	137032
#	150912
#	170077
#
# Disc length: 2533 seconds
#
# Revision: 7
# Processed by: cddbd v1.5.2PL0 Copyright (c) Steve Scherf et al.
# Submitted via: CDex 1.70beta3
#
DISCID=9009e30c
DTITLE=アバ - アライヴァル
DYEAR=1976
DGENRE=Blues
TTITLE0=ホエン・アイ・キッスト・ザ・ティーチャー
TTITLE1=ダンシング・クイーン
TTITLE2=マイ・ラブ・マイ・ライフ
TTITLE3=ダム・ダム・ディドル
TTITLE4=ノウイング・ミー、ノウイング・ユー
TTITLE5=マネー、マネー、マネー
TTITLE6=ザッツ・ミー
TTITLE7=ホワイ・ディド・イット・ハフ・トゥ・ビー・ミー
TTITLE8=タイガー
TTITLE9=アライヴァル
TTITLE10=悲しきフェルナンド
TTITLE11=ハッピー・ハワイ
EXTD=YEAR: 1976
EXTT0=
EXTT1=
EXTT2=
EXTT3=
EXTT4=
EXTT5=
EXTT6=
EXTT7=
EXTT8=
EXTT9=
EXTT10=
EXTT11=
PLAYORDER=
